<?xml version="1.0" encoding="UTF-8"?>
<svg id="Layer_2" data-name="Layer 2" xmlns="http://www.w3.org/2000/svg" viewBox="0 0 651.67 54.68">
  <g id="Camada_1" data-name="Camada 1">
    <g>
      <path d="M124.62,2.24l-20.85,6.54,3.64,12.24c.52,1.75-1.49,3.15-2.95,2.06L73.52,0,0,23.05l1.49,4.67,93.47-.03c2.17,0,2.64,3.05.57,3.7l-11.62,3.65-47.75,14.97,1.49,4.67h48.28c2.4-.01,4.66-1.15,6.09-3.07l17.5-23.47.33-.44.29-.38,13.25-17.78c1.56-2.09,2.01-4.81,1.22-7.29h0Z"/>
      <g>
        <g>
          <path d="M373.87,18.45h-1.59c-11.87,0-20.98,5.66-20.98,17.11v2.14c0,11.59,9.11,16.98,20.98,16.98h1.59c12.63,0,19.26-5.18,20.57-12.29h-8.56c-1.31,3.93-5.52,5.8-12.01,5.8h-1.59c-7.73,0-12.15-3.38-12.22-9.59h34.72v-3.04c0-11.46-9.18-17.11-20.91-17.11ZM360.07,34.73c.02-1.02.03-2.02.29-3.01.18-.7.45-1.37.81-2,.71-1.25,1.76-2.25,2.99-2.98,1.44-.84,3.07-1.31,4.7-1.56,1.11-.17,2.23-.24,3.35-.24h1.65c1.9,0,3.81.22,5.63.79,1.51.48,2.96,1.23,4.12,2.33,1.08,1.02,1.85,2.33,2.23,3.77.16.6.21,1.19.23,1.81,0,.07.03,1.09.04,1.09h-26.05Z"/>
          <path d="M238.32,18.45h-1.31c-6.2,0-10.58,2.15-13.06,5.41-.21.28-.53.45-.89.45-.61,0-1.1-.49-1.1-1.1v-4.15h-9.18v34.99h9.18v-18.5c0-6.07,3.86-9.66,10.77-9.66h1.31c7.18,0,10.56,3.52,10.56,9.66v18.5h9.18v-19.88c0-10.49-5.45-15.73-15.46-15.73Z"/>
          <path d="M294.82,23.3c0,.6-.48,1.08-1.08,1.08-.32,0-.62-.15-.83-.39-3.04-3.61-7.62-5.54-13.55-5.54h-1.66c-10.28,0-18.08,5.52-18.08,17.04v2.14c0,11.66,7.8,17.05,18.08,17.05h1.66c6.12,0,10.64-1.92,13.55-5.59.2-.26.51-.41.84-.41.59,0,1.07.48,1.07,1.07v4.32h9.25V7.82h-9.25v15.48ZM294.82,37.7c0,6.56-5.11,9.8-12.21,9.8h-1.59c-7.32,0-12.22-3.45-12.22-9.8v-2.21c0-6.35,4.9-9.87,12.22-9.87h1.59c7.18,0,12.21,3.38,12.21,9.87v2.21Z"/>
          <path d="M333.3,18.45c-5.55,0-9.08,1.71-11.43,4.58-.2.24-.49.39-.8.39-.57,0-1.02-.46-1.02-1.02v-3.32h-9.18v34.99h9.18v-20.91c0-4.76,3.18-7.31,9.25-7.31s8.97,2.55,8.97,7.31v1.59h8.56v-2c0-9.94-4.69-14.28-13.53-14.28Z"/>
          <rect x="359.97" y="10.68" width="26.15" height="3.88"/>
          <path d="M172.92,7.82l-21.26,46.24h9.04l5.31-11.59h.02l1.79-3.88h23.99s1.78,3.88,1.78,3.88h.03l5.38,11.59h9.45l-21.39-46.24h-14.15ZM169.6,34.73l8.2-17.85c.35-.77,1.12-1.26,1.96-1.26s1.6.49,1.96,1.25l8.33,17.86h-20.45Z"/>
          <path d="M421.05,18.45h-1.66c-12.77,0-19.19,4.62-19.19,12.56h9.18c0-4.35,3.93-6.28,10.01-6.28h1.59c6.35,0,10.08,2,10.08,6.49v3.44h-15.8c-10.25,0-15.68,3.32-16,9.62.09,7.07,5.85,10.41,14.34,10.41,6.79,0,11.65-1.54,15.21-5.12.25-.25.58-.4.94-.4.72,0,1.31.59,1.31,1.31v3.59h9.18v-22.84c0-8.08-6.28-12.77-19.19-12.77ZM431.06,40.32c0,6-7.87,7.8-13.6,7.8-6.14,0-8.9-1.66-8.9-4.83s2.42-4.69,8.15-4.69h14.35v1.72Z"/>
        </g>
        <g>
          <path d="M576.69,18.45c-5.55,0-9.08,1.71-11.43,4.58-.2.24-.49.39-.8.39-.57,0-1.02-.46-1.02-1.02v-3.32h-9.18v34.99h9.18v-20.91c0-4.76,3.18-7.31,9.25-7.31s8.97,2.55,8.97,7.31v1.59h8.56v-2c0-9.94-4.69-14.28-13.53-14.28Z"/>
          <path d="M632.48,18.45h-1.66c-12.77,0-19.19,4.62-19.19,12.56h9.18c0-4.35,3.93-6.28,10.01-6.28h1.59c6.35,0,10.08,2,10.08,6.49v3.44h-15.8c-10.25,0-15.68,3.32-16,9.62.09,7.07,5.85,10.41,14.34,10.41,6.79,0,11.65-1.54,15.21-5.12.25-.25.58-.4.94-.4.72,0,1.31.59,1.31,1.31v3.59h9.18v-22.84c0-8.08-6.28-12.77-19.19-12.77ZM642.49,40.32c0,6-7.87,7.8-13.6,7.8-6.14,0-8.9-1.66-8.9-4.83s2.42-4.69,8.15-4.69h14.35v1.72Z"/>
          <path d="M528.95,18.45h-1.66c-12.77,0-19.19,4.62-19.19,12.56h9.18c0-4.35,3.93-6.28,10.01-6.28h1.59c6.35,0,10.08,2,10.08,6.49v3.44h-15.8c-10.25,0-15.68,3.32-16,9.62.09,7.07,5.85,10.41,14.34,10.41,6.79,0,11.66-1.54,15.21-5.12.25-.25.58-.4.94-.4.72,0,1.31.59,1.31,1.31v3.59h9.18v-22.84c0-8.08-6.28-12.77-19.19-12.77ZM538.96,40.32c0,6-7.87,7.8-13.6,7.8-6.14,0-8.9-1.66-8.9-4.83s2.42-4.69,8.15-4.69h14.35v1.72Z"/>
          <rect x="594.96" y="19.07" width="9.18" height="34.99"/>
          <rect x="594.96" y="11.21" width="9.18" height="3.88"/>
          <polygon points="462.86 54.06 472.31 54.06 472.31 33.6 500.61 33.6 500.61 29.72 472.31 29.72 472.31 15.62 504.2 15.62 504.2 7.82 462.86 7.82 462.86 54.06"/>
        </g>
      </g>
    </g>
  </g>
</svg>