<?xml version="1.0" encoding="UTF-8"?>
<svg id="Layer_2" data-name="Layer 2" xmlns="http://www.w3.org/2000/svg" viewBox="0 0 450 42.17">
  <g id="Camada_1" data-name="Camada 1">
    <g>
      <g>
        <path d="M199.98,9.57h-1.43c-10.68,0-18.88,5.09-18.88,15.4v1.93c0,10.43,8.2,15.28,18.88,15.28h1.43c11.37,0,17.33-4.66,18.51-11.06h-7.7c-1.18,3.54-4.97,5.22-10.81,5.22h-1.43c-6.96,0-10.93-3.04-10.99-8.63h31.24v-2.73c0-10.31-8.26-15.4-18.82-15.4ZM187.56,24.22c.02-.92.03-1.81.26-2.71.16-.63.4-1.24.72-1.8.64-1.12,1.59-2.03,2.69-2.68,1.29-.76,2.76-1.18,4.23-1.41,1-.15,2.01-.21,3.02-.21h1.49c1.71,0,3.43.19,5.06.71,1.36.43,2.67,1.11,3.71,2.1.97.92,1.67,2.1,2.01,3.39.14.54.19,1.07.21,1.63,0,.07.03.98.03.98h-23.44Z"/>
        <path d="M77.99,9.57h-1.18c-5.58,0-9.52,1.93-11.76,4.87-.19.25-.48.41-.8.41-.55,0-.99-.44-.99-.99v-3.73h-8.26v31.49h8.26v-16.65c0-5.47,3.48-8.7,9.69-8.7h1.18c6.46,0,9.5,3.17,9.5,8.7v16.65h8.26v-17.89c0-9.44-4.91-14.16-13.91-14.16Z"/>
        <path d="M128.84,13.93c0,.54-.43.97-.97.97-.29,0-.56-.13-.75-.35-2.74-3.25-6.86-4.99-12.2-4.99h-1.49c-9.25,0-16.28,4.97-16.28,15.34v1.93c0,10.5,7.02,15.34,16.28,15.34h1.49c5.51,0,9.58-1.73,12.2-5.03.18-.23.46-.37.75-.37.53,0,.96.43.96.96v3.89h8.32V0h-8.32v13.93ZM128.84,26.89c0,5.9-4.6,8.82-10.99,8.82h-1.43c-6.59,0-11-3.11-11-8.82v-1.99c0-5.71,4.41-8.88,11-8.88h1.43c6.46,0,10.99,3.04,10.99,8.88v1.99Z"/>
        <path d="M163.47,9.57c-5,0-8.17,1.54-10.28,4.12-.18.22-.44.35-.72.35-.51,0-.92-.41-.92-.92v-2.99h-8.26v31.49h8.26v-18.82c0-4.29,2.86-6.58,8.32-6.58s8.08,2.3,8.08,6.58v1.43h7.7v-1.8c0-8.94-4.22-12.86-12.17-12.86Z"/>
        <rect x="187.47" y="2.58" width="23.54" height="3.49"/>
        <path d="M19.13,0L0,41.62h8.14l4.78-10.43h.02l1.61-3.49h21.59s1.6,3.49,1.6,3.49h.03l4.84,10.43h8.51L31.87,0h-12.73ZM16.14,24.22l7.38-16.07c.32-.69,1.01-1.13,1.77-1.13s1.44.44,1.76,1.12l7.5,16.08h-18.4Z"/>
        <path d="M242.45,9.57h-1.49c-11.49,0-17.27,4.16-17.27,11.3h8.26c0-3.91,3.54-5.65,9.01-5.65h1.43c5.72,0,9.07,1.8,9.07,5.84v3.09h-14.22c-9.23,0-14.11,2.99-14.4,8.66.08,6.36,5.26,9.37,12.91,9.37,6.11,0,10.49-1.39,13.69-4.61.22-.23.53-.36.84-.36.65,0,1.18.53,1.18,1.18v3.23h8.26v-20.56c0-7.27-5.65-11.49-17.27-11.49ZM251.46,29.26c0,5.4-7.08,7.02-12.24,7.02-5.53,0-8.01-1.49-8.01-4.35s2.18-4.22,7.33-4.22h12.92v1.55Z"/>
      </g>
      <g>
        <path d="M382.52,9.57c-5,0-8.17,1.54-10.28,4.12-.18.22-.44.35-.72.35-.51,0-.92-.41-.92-.92v-2.99h-8.26v31.49h8.26v-18.82c0-4.29,2.86-6.58,8.32-6.58s8.08,2.3,8.08,6.58v1.43h7.7v-1.8c0-8.94-4.22-12.86-12.17-12.86Z"/>
        <path d="M432.73,9.57h-1.49c-11.49,0-17.27,4.16-17.27,11.3h8.26c0-3.91,3.54-5.65,9.01-5.65h1.43c5.72,0,9.07,1.8,9.07,5.84v3.09h-14.22c-9.23,0-14.11,2.99-14.4,8.66.08,6.36,5.26,9.37,12.91,9.37,6.11,0,10.49-1.39,13.69-4.61.22-.23.53-.36.84-.36.65,0,1.18.53,1.18,1.18v3.23h8.26v-20.56c0-7.27-5.65-11.49-17.27-11.49ZM441.74,29.26c0,5.4-7.08,7.02-12.24,7.02-5.53,0-8.01-1.49-8.01-4.35s2.18-4.22,7.33-4.22h12.92v1.55Z"/>
        <path d="M339.56,9.57h-1.49c-11.49,0-17.27,4.16-17.27,11.3h8.26c0-3.91,3.54-5.65,9.01-5.65h1.43c5.72,0,9.07,1.8,9.07,5.84v3.09h-14.22c-9.23,0-14.11,2.99-14.4,8.66.08,6.36,5.26,9.37,12.91,9.37,6.11,0,10.49-1.39,13.69-4.61.22-.23.53-.36.84-.36.65,0,1.18.53,1.18,1.18v3.23h8.26v-20.56c0-7.27-5.65-11.49-17.27-11.49ZM348.57,29.26c0,5.4-7.08,7.02-12.24,7.02-5.53,0-8.01-1.49-8.01-4.35s2.18-4.22,7.33-4.22h12.92v1.55Z"/>
        <rect x="398.97" y="10.12" width="8.26" height="31.49"/>
        <rect x="398.97" y="3.06" width="8.26" height="3.49"/>
        <polygon points="280.07 41.62 288.58 41.62 288.58 23.2 314.05 23.2 314.05 19.71 288.58 19.71 288.58 7.02 317.28 7.02 317.28 0 280.07 0 280.07 41.62"/>
      </g>
    </g>
  </g>
</svg>